<svg id="Layer_1" data-name="Layer 1" xmlns="http://www.w3.org/2000/svg" viewBox="0 0 90.66 82.55">
  <title>nav-logo</title>
  <g>
    <path d="M76.94,62.07c0,1.89-.6,2.79-2.2,2.79s-2.32-.94-2.32-2.79V38c0-1.85.77-2.75,2.32-2.75s2.2.86,2.2,2.75v6.24h3V37.94c0-4-1.72-6-5.17-6-3.74,0-5.63,2-5.63,6.11V62.11c0,4,1.89,6,5.63,6s5.17-1.94,5.17-6.07V54.71h-3ZM95,67.7l-5.24-19L94.23,32.3h-3.4C89.8,36.13,88.29,43,88,45c-.34-2-1.81-8.86-2.84-12.69H81.63L86,48.82,80.85,67.7h3.36c1.37-4.9,3.26-13.38,3.61-15.35.34,1.93,2.28,10.49,3.66,15.35Z" transform="translate(-4.34 -9)" style="fill: #fff"/>
    <path d="M18,67.7,12.9,48.09,17.59,32.3h-5C9.81,42.84,9.29,45.21,8.9,47.14c.13-2,.13-3.87.13-7.78V32.3H4.34V67.7H9V60c0-3.91,0-6.71-.13-9.2.52,2.49,1,5.38,3.78,16.86ZM26.71,46c0,1.08-.52,1.64-1.55,1.64h-.95V37h.9c1.08,0,1.6.56,1.6,1.68Zm5,21.68c-.69-5.5-1.42-11.14-2.32-16.73,1.41-.86,2-2.28,2-5V38.67c0-4.64-2.11-6.37-6.33-6.37H19.52V67.7h4.69V51.92H25c.69,5.24,1.16,10.53,1.63,15.78Zm8.81-5.63c0,.9-.38,1.33-1.07,1.33S38.4,63,38.4,62.07V32.3H33.72V62.07c0,4,1.93,6,5.76,6s5.72-2,5.72-6V32.3H40.55ZM48.08,32.3V67.7h4.69V32.3Zm14,29.94a1.14,1.14,0,1,1-2.28,0V54.71H55.35v7.53c0,3.7,1.76,5.85,5.72,5.85s5.68-2.15,5.68-5.85V57.16c0-3-.78-4.86-3.27-8.17s-3.4-4.21-3.4-6V37.72c0-.77.34-1.11,1.12-1.11s1.12.34,1.12,1.11v6.5h4.3v-6.5c0-3.91-1.55-5.8-5.55-5.8-3.83,0-5.72,1.89-5.72,5.8V43c0,3,1.12,5.08,3.31,7.92,2.84,3.61,3.44,4.43,3.44,6.28Z" transform="translate(-4.34 -9)" style="fill: #fff"/>
    <path d="M84.05,27.4c-.28-.4-.66-.57-1-.34l-1.88,1.08a.86.86,0,0,1-1.14-.3c-.47-.62-.92-1.22-1.41-1.8s-1-1.14-1.53-1.71a.87.87,0,0,1-.11-1.17l1.4-1.66a.77.77,0,0,0-.15-1.11c-.62-.6-1.29-1.18-2-1.74S74.87,17.52,74.16,17a.77.77,0,0,0-1.11,0l-1.39,1.66a.86.86,0,0,1-1.18.1c-.65-.41-1.28-.82-1.94-1.2s-1.33-.73-2-1.08A.86.86,0,0,1,66,15.47l.74-2c.16-.43-.08-.78-.52-1-.79-.36-1.61-.67-2.44-1s-1.66-.59-2.49-.82a.76.76,0,0,0-1,.41l-.74,2a.85.85,0,0,1-1.06.5c-.75-.17-1.5-.33-2.25-.47s-1.5-.22-2.26-.32a.86.86,0,0,1-.84-.83V9.82c0-.45-.33-.7-.82-.74C51.44,9,50.57,9,49.69,9s-1.76,0-2.63.08c-.49,0-.82.29-.82.74V12a.85.85,0,0,1-.84.83c-.76.1-1.51.2-2.26.33s-1.49.3-2.24.46a.85.85,0,0,1-1.07-.49l-.74-2a.77.77,0,0,0-1-.42c-.84.23-1.67.52-2.49.83s-1.65.61-2.44,1c-.45.21-.68.56-.52,1l.74,2a.84.84,0,0,1-.5,1.06c-.68.36-1.36.7-2,1.08s-1.29.79-1.94,1.2a.85.85,0,0,1-1.17-.1l-1.4-1.66a.77.77,0,0,0-1.11,0c-.71.5-1.39,1.06-2.06,1.63s-1.34,1.13-2,1.74A.78.78,0,0,0,21,21.5l1.4,1.66a.85.85,0,0,1-.1,1.17c-.52.57-1,1.12-1.53,1.7s-.95,1.19-1.41,1.8a.86.86,0,0,1-1.14.31l-1.88-1.09a.77.77,0,0,0-1.06.34c-.42.61-.79,1.26-1.17,1.9h10.2A32.89,32.89,0,0,1,43.62,17.94a5.84,5.84,0,0,0,0,.73,6.07,6.07,0,0,0,.17,1.42,30.69,30.69,0,0,0-16.51,9.2H37.85a23.89,23.89,0,0,1,23.54,0H72a30.65,30.65,0,0,0-16.4-9.18,6.24,6.24,0,0,0,.17-1.44c0-.25,0-.49,0-.73A32.89,32.89,0,0,1,75,29.29H85.22c-.38-.64-.75-1.28-1.17-1.89M53.22,19.65H50.65v2.56h-2V19.65H46.12v-2h2.57V15.12h2v2.57h2.57Z" transform="translate(-4.34 -9)" style="fill: #fff"/>
    <path d="M75.42,70.72a32.82,32.82,0,0,1-19.7,11.89,7.37,7.37,0,0,0,.05-.82,6.56,6.56,0,0,0-.19-1.54,30.7,30.7,0,0,0,16.74-9.53H62a23.81,23.81,0,0,1-24.69,0H26.91a30.77,30.77,0,0,0,16.85,9.56,6.25,6.25,0,0,0-.19,1.51,5.55,5.55,0,0,0,.06.82A32.92,32.92,0,0,1,23.92,70.72H13.81l.11.18c.44.77.89,1.52,1.38,2.24a.78.78,0,0,0,1.06.34l1.88-1.08a.85.85,0,0,1,1.13.3c.47.61.92,1.22,1.41,1.8s1,1.14,1.53,1.71a.85.85,0,0,1,.1,1.17L21,79a.76.76,0,0,0,.15,1.1c.62.61,1.29,1.19,2,1.75s1.35,1.12,2.06,1.62a.76.76,0,0,0,1.11,0l1.4-1.66a.86.86,0,0,1,1.17-.1c.65.42,1.28.83,1.94,1.21s1.33.73,2,1.08a.85.85,0,0,1,.49,1.07l-.74,2a.78.78,0,0,0,.52,1c.79.36,1.62.67,2.44,1s1.66.59,2.49.82a.75.75,0,0,0,1-.42l.75-2a.85.85,0,0,1,1.06-.5c.75.17,1.49.34,2.24.47s1.5.23,2.27.34a.84.84,0,0,1,.83.82v2.17c0,.46.33.71.83.75.86.06,1.74.07,2.62.07s1.76,0,2.62-.07c.49,0,.83-.29.83-.75V88.56a.84.84,0,0,1,.83-.82c.76-.11,1.51-.2,2.27-.33s1.49-.3,2.24-.47a.85.85,0,0,1,1.07.5l.74,2c.15.44.55.55,1,.42.83-.23,1.66-.52,2.49-.82s1.65-.61,2.43-1a.77.77,0,0,0,.53-1l-.75-2a.87.87,0,0,1,.5-1.07c.69-.35,1.37-.7,2-1.08s1.29-.79,1.95-1.2a.85.85,0,0,1,1.17.1L73,83.49a.77.77,0,0,0,1.12,0c.7-.5,1.38-1.06,2.06-1.62s1.33-1.15,2-1.75a.76.76,0,0,0,.16-1.1l-1.4-1.66a.86.86,0,0,1,.1-1.17c.53-.57,1-1.13,1.53-1.71s.95-1.18,1.42-1.8a.86.86,0,0,1,1.14-.3L83,73.5A.77.77,0,0,0,84,73.16c.49-.71.94-1.47,1.38-2.24l.12-.2Zm-22.2,12H50.65v2.57h-2V82.77H46.12v-2h2.57V78.24h2v2.57h2.57Z" transform="translate(-4.34 -9)" style="fill: #fff"/>
  </g>
</svg>
