<svg data-name="Layer 1" xmlns="http://www.w3.org/2000/svg" viewBox="0 0 354 154"><title>logo</title><path d="M279.9 123.32c0 6.92-2.2 10.23-8 10.23s-8.5-3.46-8.5-10.23V35.18c0-6.77 2.82-10.06 8.5-10.06 6.14 0 8 3.14 8 10.06V58h10.87V35c0-14.64-6.3-22-18.89-22-13.69 0-20.62 7.39-20.62 22.34v88.14c0 14.62 6.93 21.87 20.62 21.87 13.23 0 18.89-7.09 18.89-22.19V96.41H279.9zm66.1 20.62l-19.19-69.41 16.36-60.12h-12.43c-3.78 14-9.29 39-10.55 46.43-1.25-7.4-6.61-32.43-10.39-46.43h-12.74l16.05 60.43-18.88 69.1h12.28c5-18 11.95-48.95 13.21-56.19 1.26 7.08 8.34 38.4 13.38 56.19zm-281.71 0L45.56 72.17l17.17-57.76H44.47C34.24 53 32.35 61.63 30.93 68.71c.47-7.24.47-14.16.47-28.49V14.41H14.26v129.53H31.4v-28c0-14.33 0-24.55-.47-33.68 1.89 9.13 3.78 19.67 13.85 61.7zm31.8-79.32c0 3.93-1.89 6-5.67 6H87v-39h3.31c3.94 0 5.83 2 5.83 6.14zm18.4 79.32c-2.5-20.14-5.18-40.76-8.49-61.23 5.19-3.15 7.39-8.34 7.39-18.25V37.71c0-17-7.69-23.3-23.13-23.3H69.79v129.53H87V86.18h2.84c2.53 19.19 4.26 38.56 6 57.76zm32.27-20.62c0 3.3-1.41 4.87-3.93 4.87s-3.93-1.57-3.93-4.87V14.41h-17.16v108.91c0 14.8 7.08 22 21.09 22 13.84 0 20.92-7.23 20.92-22V14.41h-17zM174.3 14.41v129.53h17.17V14.41zM225.61 124c0 2.83-1.41 4.24-4.25 4.24-2.67 0-4.09-1.41-4.09-4.24V96.41H200.9V124c0 13.53 6.45 21.4 20.94 21.4s20.77-7.87 20.77-21.4v-18.63c0-11.16-2.83-17.78-12-29.9-9.6-12.58-12.43-15.42-12.43-22V34.24c0-2.83 1.27-4.09 4.1-4.09s4.08 1.26 4.08 4.09V58h15.74V34.24c0-14.32-5.66-21.24-20.29-21.24-14 0-20.94 6.92-20.94 21.24V53.6c0 11 4.1 18.57 12.12 29 10.39 13.22 12.59 16.2 12.59 23z" fill="#fff"/></svg>